<svg xmlns="http://www.w3.org/2000/svg" width="1600" height="900" viewBox="0 0 1600 900" role="img" aria-labelledby="title desc">
<title id="title">Terrain-Studio</title><desc id="desc">Parametric landscape terrain study.</desc><defs><linearGradient id="s" x2="1" y2="1"><stop stop-color="#0b2226"/><stop offset="1" stop-color="#173e37"/></linearGradient><linearGradient id="l" x2="0" y2="1"><stop stop-color="#c59e5e"/><stop offset="1" stop-color="#587958"/></linearGradient></defs><rect width="1600" height="900" fill="url(#s)"/><path d="M0 690C170 580 300 770 470 610S800 430 970 600s320-20 630-170V900H0Z" fill="url(#l)"/><g fill="none" stroke="#f8e6ba" stroke-opacity=".78" stroke-width="5"><path d="M-20 733C190 565 294 803 492 632S798 464 966 636s344-4 654-206"/><path d="M-20 768C194 600 304 838 502 667S806 499 974 671s346-5 646-206"/><path d="M-20 803C202 635 312 873 510 702S814 534 982 706s352-6 638-207"/><path d="M-20 838C210 670 320 908 518 737S822 569 990 741s354-6 630-208"/></g><text x="88" y="152" fill="#f8e6ba" font-family="Georgia,serif" font-size="92" font-style="italic" letter-spacing="7">TERRAIN</text><text x="93" y="235" fill="#f8e6ba" font-family="Arial,sans-serif" font-size="49" font-weight="700" letter-spacing="19">STUDIO</text><text x="96" y="304" fill="#b8d5bd" font-family="Arial,sans-serif" font-size="24" letter-spacing="4">PARAMETRIC LANDSCAPE TOOL</text></svg>
